HIERARCHY
ROOT Hips
{
    OFFSET 0.000000 0.000000 0.000000
    CHANNELS 6 Xposition Yposition Zposition Zrotation Xrotation Yrotation
    JOINT Spine
    {
        OFFSET -0.000000 8.505030 0.000000
        CHANNELS 3 Zrotation Xrotation Yrotation
        JOINT Spine1
        {
            OFFSET -0.000000 25.070629 0.000000
            CHANNELS 3 Zrotation Xrotation Yrotation
            JOINT Neck
            {
                OFFSET -0.000000 24.967667 2.269788
                CHANNELS 3 Zrotation Xrotation Yrotation
                JOINT Head
                {
                    OFFSET -0.000000 14.520781 -2.074397
                    CHANNELS 3 Zrotation Xrotation Yrotation
                    End Site
                    {
                        OFFSET -0.000000 25.929966 0.000000
                    }
                }
            }
            JOINT LeftShoulder
            {
                OFFSET 4.117346 22.983784 -0.389865
                CHANNELS 3 Zrotation Xrotation Yrotation
                JOINT LeftArm
                {
                    OFFSET 11.957758 0.000000 0.000000
                    CHANNELS 3 Zrotation Xrotation Yrotation
                    JOINT LeftForeArm
                    {
                        OFFSET 31.907600 0.000000 0.000000
                        CHANNELS 3 Zrotation Xrotation Yrotation
                        JOINT LeftHand
                        {
                            OFFSET 28.601147 0.000000 0.000000
                            CHANNELS 3 Zrotation Xrotation Yrotation
                            End Site
                            {
                                OFFSET 15.557981 0.000000 0.000000
                            }
                        }
                    }
                }
            }
            JOINT RightShoulder
            {
                OFFSET -4.061940 22.983784 -0.389865
                CHANNELS 3 Zrotation Xrotation Yrotation
                JOINT RightArm
                {
                    OFFSET -11.957758 0.000000 0.000000
                    CHANNELS 3 Zrotation Xrotation Yrotation
                    JOINT RightForeArm
                    {
                        OFFSET -31.907600 0.000000 0.000000
                        CHANNELS 3 Zrotation Xrotation Yrotation
                        JOINT RightHand
                        {
                            OFFSET -28.601147 0.000000 0.000000
                            CHANNELS 3 Zrotation Xrotation Yrotation
                            End Site
                            {
                                OFFSET -15.557981 0.000000 0.000000
                            }
                        }
                    }
                }
            }
        }
    }
    JOINT LeftUpLeg
    {
        OFFSET 10.371986 0.000000 0.000000
        CHANNELS 3 Zrotation Xrotation Yrotation
        JOINT LeftLeg
        {
            OFFSET -0.000000 -42.486427 0.000000
            CHANNELS 3 Zrotation Xrotation Yrotation
            JOINT LeftFoot
            {
                OFFSET -0.000000 -48.322342 0.000000
                CHANNELS 3 Zrotation Xrotation Yrotation
                JOINT LeftToeBase
                {
                    OFFSET -0.000000 -6.741791 15.557981
                    CHANNELS 3 Zrotation Xrotation Yrotation
                    End Site
                    {
                        OFFSET -0.000000 0.000000 4.148795
                    }
                }
            }
        }
    }
    JOINT RightUpLeg
    {
        OFFSET -10.371986 0.000000 0.000000
        CHANNELS 3 Zrotation Xrotation Yrotation
        JOINT RightLeg
        {
            OFFSET -0.000000 -42.486427 0.000000
            CHANNELS 3 Zrotation Xrotation Yrotation
            JOINT RightFoot
            {
                OFFSET -0.000000 -48.322342 0.000000
                CHANNELS 3 Zrotation Xrotation Yrotation
                JOINT RightToeBase
                {
                    OFFSET -0.000000 -6.741791 15.557981
                    CHANNELS 3 Zrotation Xrotation Yrotation
                    End Site
                    {
                        OFFSET -0.000000 0.000000 4.148795
                    }
                }
            }
        }
    }
}
MOTION
Frames:    4
Frame Time:    0.008333
-182.979309    99.465958    67.179718    0.624608    -1.458493    88.960617    0.494996    -7.280493    0.756271    1.478315    -3.923433    0.775451    -3.621854    32.586636    -5.582722    6.411648    5.462849    -5.790544    14.814850    -0.047357    -14.851073    -7.260406    -1.958583    -6.014657    -3.580989    -1.967085    25.412617    0.521529    -1.181829    -4.860236    -16.061178    2.494422    -6.946603    11.779675    -2.126543    20.530924    3.485399    3.340106    -17.370869    5.224019    3.742242    -2.842504    4.297818    3.739998    2.578454    -1.766809    5.085880    5.544907    -5.061264    -5.820076    7.197543    0.000000    0.000000    0.000000    0.151224    4.532763    3.997899    1.777165    3.958343    -2.405188    2.813944    -5.221590    -15.128531    0.000000    0.000000    0.000000    
-182.968567    99.465881    67.181030    0.626246    -1.458069    88.952690    0.498533    -7.284676    0.761222    1.469697    -3.908235    0.779592    -3.621907    32.559689    -5.604843    6.380795    5.441512    -5.814298    14.838254    -0.061404    -14.844461    -7.267075    -1.990769    -6.029985    -3.585186    -1.970465    25.429388    0.524307    -1.183955    -4.877239    -16.055828    2.487319    -6.953243    11.780233    -2.151699    20.523535    3.494103    3.352015    -17.349184    5.262748    3.754760    -2.822536    4.296218    3.748083    2.608626    -1.764284    5.083896    5.570448    -5.060849    -5.807970    7.158632    0.000000    0.000000    0.000000    0.152100    4.541413    3.999251    1.775630    3.951569    -2.441839    2.835640    -5.222572    -15.085304    0.000000    0.000000    0.000000    
-182.960220    99.465454    67.182365    0.621619    -1.456919    88.956322    0.505817    -7.294809    0.752686    1.452926    -3.886805    0.769789    -3.638500    32.556870    -5.590997    6.365753    5.354290    -5.799032    14.842702    -0.077528    -14.813711    -7.259238    -2.007405    -6.045898    -3.571734    -1.968702    25.435623    0.473181    -1.182728    -4.858439    -16.070198    2.472990    -6.959816    11.812845    -2.183025    20.533562    3.499439    3.352777    -17.337780    5.293972    3.755941    -2.806288    4.297578    3.746520    2.589567    -1.766531    5.090289    5.548058    -5.050982    -5.817294    7.193503    0.000000    0.000000    0.000000    0.149861    4.533738    3.983504    1.777661    3.967520    -2.423406    2.847671    -5.234013    -15.090775    0.000000    0.000000    0.000000    
-182.950165    99.464546    67.185112    0.619581    -1.461657    88.952438    0.510426    -7.297522    0.751773    1.455707    -3.886380    0.768580    -3.661819    32.610771    -5.589734    6.360556    5.222451    -5.796772    14.835124    -0.088111    -14.821615    -7.248654    -2.040223    -6.030217    -3.576014    -1.956687    25.433672    0.484478    -1.170209    -4.847268    -16.093250    2.461448    -6.958129    11.846213    -2.183793    20.532078    3.490333    3.356401    -17.338387    5.326062    3.758443    -2.784618    4.297812    3.745696    2.614102    -1.754495    5.099164    5.547819    -5.084966    -5.822726    7.173379    0.000000    0.000000    0.000000    0.161803    4.533147    3.956246    1.767990    3.977622    -2.419109    2.845252    -5.248480    -15.073341    0.000000    0.000000    0.000000    
